HIERARCHY
ROOT hip
{
  OFFSET 0 0 0
  CHANNELS 6 Xposition Yposition Zposition Zrotation Yrotation Xrotation
  JOINT abdomen
  {
    OFFSET 0 20.6881 -0.73152
    CHANNELS 3 Zrotation Xrotation Yrotation
    JOINT chest
    {
      OFFSET 0 11.7043 -0.48768
      CHANNELS 3 Zrotation Xrotation Yrotation
      JOINT neck
      {
        OFFSET 0 22.1894 -2.19456
        CHANNELS 3 Zrotation Xrotation Yrotation
        JOINT head
        {
          OFFSET -0.24384 7.07133 1.2192
          CHANNELS 3 Zrotation Xrotation Yrotation
          JOINT leftEye
          {
            OFFSET 4.14528 8.04674 8.04672
            CHANNELS 3 Zrotation Xrotation Yrotation
            End Site
            {
              OFFSET 1 0 0
            }
          }
          JOINT rightEye
          {
            OFFSET -3.6576 8.04674 8.04672
            CHANNELS 3 Zrotation Xrotation Yrotation
            End Site
            {
              OFFSET 1 0 0
            }
          }
        }
      }
      JOINT rCollar
      {
        OFFSET -2.68224 19.2634 -4.8768
        CHANNELS 3 Zrotation Xrotation Yrotation
        JOINT rShldr
        {
          OFFSET -8.77824 -1.95073 1.46304
          CHANNELS 3 Zrotation Xrotation Yrotation
          JOINT rForeArm
          {
            OFFSET -28.1742 -1.7115 0.48768
            CHANNELS 3 Zrotation Xrotation Yrotation
            JOINT rHand
            {
              OFFSET -22.5879 0.773209 7.07136
              CHANNELS 3 Zrotation Xrotation Yrotation
              JOINT rThumb1
              {
                OFFSET -1.2192 -0.487915 3.41376
                CHANNELS 3 Zrotation Xrotation Yrotation
                JOINT rThumb2
                {
                  OFFSET -3.37035 -0.52449 3.41376
                  CHANNELS 3 Zrotation Xrotation Yrotation
                  End Site
                  {
                    OFFSET -1.78271 -1.18214 1.43049
                  }
                }
              }
              JOINT rIndex1
              {
                OFFSET -7.75947 0.938293 5.60832
                CHANNELS 3 Zrotation Xrotation Yrotation
                JOINT rIndex2
                {
                  OFFSET -2.54057 -0.884171 1.56538
                  CHANNELS 3 Zrotation Xrotation Yrotation
                  End Site
                  {
                    OFFSET -1.62519 -0.234802 1.16502
                  }
                }
              }
              JOINT rMid1
              {
                OFFSET -8.24714 1.18213 3.41376
                CHANNELS 3 Zrotation Xrotation Yrotation
                JOINT rMid2
                {
                  OFFSET -3.10165 -0.590103 1.0647
                  CHANNELS 3 Zrotation Xrotation Yrotation
                  End Site
                  {
                    OFFSET -2.48547 -0.328903 0.83742
                  }
                }
              }
              JOINT rRing1
              {
                OFFSET -8.82822 0.546677 1.51678
                CHANNELS 3 Zrotation Xrotation Yrotation
                JOINT rRing2
                {
                  OFFSET -2.60934 -0.819778 -0.0198488
                  CHANNELS 3 Zrotation Xrotation Yrotation
                  End Site
                  {
                    OFFSET -2.33842 -0.294052 0.168128
                  }
                }
              }
              JOINT rPinky1
              {
                OFFSET -8.27202 -0.0477905 -0.4584
                CHANNELS 3 Zrotation Xrotation Yrotation
                JOINT rPinky2
                {
                  OFFSET -1.82734 -0.647385 -0.700984
                  CHANNELS 3 Zrotation Xrotation Yrotation
                  End Site
                  {
                    OFFSET -1.69225 -0.51767 -0.607171
                  }
                }
              }
            }
          }
        }
      }
      JOINT lCollar
      {
        OFFSET 2.68224 19.2634 -4.8768
        CHANNELS 3 Zrotation Xrotation Yrotation
        JOINT lShldr
        {
          OFFSET 8.77824 -1.95073 1.46304
          CHANNELS 3 Zrotation Xrotation Yrotation
          JOINT lForeArm
          {
            OFFSET 28.1742 -1.7115 0.48768
            CHANNELS 3 Zrotation Xrotation Yrotation
            JOINT lHand
            {
              OFFSET 22.5879 0.773209 7.07136
              CHANNELS 3 Zrotation Xrotation Yrotation
              JOINT lThumb1
              {
                OFFSET 1.2192 -0.487915 3.41376
                CHANNELS 3 Zrotation Xrotation Yrotation
                JOINT lThumb2
                {
                  OFFSET 3.37035 -0.52449 3.41376
                  CHANNELS 3 Zrotation Xrotation Yrotation
                  End Site
                  {
                    OFFSET 1.78271 -1.18214 1.43049
                  }
                }
              }
              JOINT lIndex1
              {
                OFFSET 7.75947 0.938293 5.60832
                CHANNELS 3 Zrotation Xrotation Yrotation
                JOINT lIndex2
                {
                  OFFSET 2.54057 -0.884171 1.56538
                  CHANNELS 3 Zrotation Xrotation Yrotation
                  End Site
                  {
                    OFFSET 1.62519 -0.234802 1.16502
                  }
                }
              }
              JOINT lMid1
              {
                OFFSET 8.24714 1.18213 3.41376
                CHANNELS 3 Zrotation Xrotation Yrotation
                JOINT lMid2
                {
                  OFFSET 3.10165 -0.590103 1.0647
                  CHANNELS 3 Zrotation Xrotation Yrotation
                  End Site
                  {
                    OFFSET 2.48547 -0.328903 0.83742
                  }
                }
              }
              JOINT lRing1
              {
                OFFSET 8.82822 0.546677 1.51678
                CHANNELS 3 Zrotation Xrotation Yrotation
                JOINT lRing2
                {
                  OFFSET 2.60934 -0.819778 -0.0198488
                  CHANNELS 3 Zrotation Xrotation Yrotation
                  End Site
                  {
                    OFFSET 2.33842 -0.294052 0.168128
                  }
                }
              }
              JOINT lPinky1
              {
                OFFSET 8.27202 -0.0477905 -0.4584
                CHANNELS 3 Zrotation Xrotation Yrotation
                JOINT lPinky2
                {
                  OFFSET 1.82734 -0.647385 -0.700984
                  CHANNELS 3 Zrotation Xrotation Yrotation
                  End Site
                  {
                    OFFSET 1.69225 -0.51767 -0.607171
                  }
                }
              }
            }
          }
        }
      }
    }
  }
  JOINT rButtock
  {
    OFFSET -8.77824 4.35084 1.2192
    CHANNELS 3 Zrotation Xrotation Yrotation
    JOINT rThigh
    {
      OFFSET 0 -1.70687 -2.19456
      CHANNELS 3 Zrotation Xrotation Yrotation
      JOINT rShin
      {
        OFFSET 0 -36.8199 0.73152
        CHANNELS 3 Zrotation Xrotation Yrotation
        JOINT rFoot
        {
          OFFSET 0.73152 -45.1104 -5.12064
          CHANNELS 3 Zrotation Xrotation Yrotation
          End Site
          {
            OFFSET -1.1221 -3.69964 12.103
          }
        }
      }
    }
  }
  JOINT lButtock
  {
    OFFSET 8.77824 4.35084 1.2192
    CHANNELS 3 Zrotation Xrotation Yrotation
    JOINT lThigh
    {
      OFFSET 0 -1.70687 -2.19456
      CHANNELS 3 Zrotation Xrotation Yrotation
      JOINT lShin
      {
        OFFSET 0 -36.8199 0.73152
        CHANNELS 3 Zrotation Xrotation Yrotation
        JOINT lFoot
        {
          OFFSET -0.73152 -45.1104 -5.12064
          CHANNELS 3 Zrotation Xrotation Yrotation
          End Site
          {
            OFFSET 1.1221 -3.69964 12.103
          }
        }
      }
    }
  }
}
MOTION
Frames:	4
Frame Time:	0.03333
0.0 0.0 0.0 0.0 0.0 0.0 0.0 0.0 0.0 0.0 0.0 0.0 0.0 0.0 0.0 0.0 0.0 0.0 0.0 0.0 0.0 0.0 0.0 0.0 0.0 0.0 0.0 0.0 0.0 0.0 0.0 0.0 0.0 0.0 0.0 0.0 0.0 0.0 0.0 0.0 0.0 0.0 0.0 0.0 0.0 0.0 0.0 0.0 0.0 0.0 0.0 0.0 0.0 0.0 0.0 0.0 0.0 0.0 0.0 0.0 0.0 0.0 0.0 0.0 0.0 0.0 0.0 0.0 0.0 0.0 0.0 0.0 0.0 0.0 0.0 0.0 0.0 0.0 0.0 0.0 0.0 0.0 0.0 0.0 0.0 0.0 0.0 0.0 0.0 0.0 0.0 0.0 0.0 0.0 0.0 0.0 0.0 0.0 0.0 0.0 0.0 0.0 0.0 0.0 0.0 0.0 0.0 0.0 0.0 0.0 0.0 0.0 0.0 0.0 0.0 0.0 0.0 0.0 0.0 0.0 0.0 0.0 0.0 0.0 0.0 0.0 0.0 0.0 0.0 0.0 0.0 0.0
-0.038900000000000004 60.021 -0.1387 -0.065068 -1.036618 -1.392635 -0.54642 4.313062 0.018392 -8.496939 2.028935 59.541949 5.230771 -3.217348 141.670316 -36.859618 40.763085 -128.178383 -143.809018 -11.967331 -35.569411 -41.086673 17.346352 -44.297989 84.316949 -2.304382 -4.397286 123.12014 -77.284651 117.811906 109.997823 -68.566509 -96.498282 -132.724748 60.764017 63.755157 28.72622 14.366425 32.733355 165.086194 -3.862027 -8.991581 -56.633577 41.509914 -77.57228 -123.966519 55.934486 -142.022993 -10.160918 65.737238 -67.546759 67.407859 73.728343 66.55247 -83.368216 32.372124 -107.229958 128.054067 23.438793 -116.054551 -143.803432 31.727644 -97.642779 -136.693536 -65.342023 -133.238177 -52.825141 27.660625 -16.038232 -28.496455 -15.937507 -9.435553 -4.349504 -6.866871 -162.91711 -27.890751 -40.171014 62.163344 -5.701878 -7.325684 -58.513983 113.027966 40.203606 -76.888562 134.338329 -9.475679 -49.011698 153.562396 -43.476085 -104.909712 159.049214 44.998273 -96.259236 93.477668 -6.976718 26.233715 -92.416797 -1.191619 -172.711753 -20.411991 -36.841449 -134.318983 176.972277 -6.229787 94.07011 136.703735 23.683067 -150.918463 -26.455773 51.648791 -144.498248 4.079558 56.899848 -164.504915 -1.077477 9.583815 -148.923426 46.755396 65.695419 -47.045758 -6.442853 -50.861214 0.232512 10.393666 52.854902 -12.958569 3.974989 5.856645 144.787377 -74.616552 51.228174 67.680172
0.9936 63.734100000000005 -0.332 -2.927979 -46.210137 4.98404 -2.147485 6.148484 -65.280342 2.925602 1.54027 69.189238 -10.414361 16.715809 -20.933375 23.012165 -27.913145 10.313132 -9.822818 0.83585 -9.703922 10.763534 0.393618 4.176397 -155.138054 -6.650017 159.199219 -50.927309 30.6818 13.621542 -63.1941 -47.716723 -121.51419 141.51413 -62.002779 124.419761 -1.034314 7.456319 -3.660394 -137.662677 -3.663677 112.572264 -11.301153 -4.95614 -7.613578 1.556036 20.781305 2.049664 -157.815439 -41.560404 154.743631 -0.672648 30.597177 10.761918 -158.089056 29.012117 -177.325245 -159.891918 -41.748085 -160.686939 68.295855 76.046847 -46.848788 -161.726034 -33.074439 -143.247392 161.040379 -49.707587 -165.457541 18.438054 22.872967 36.592301 -10.91561 -53.210019 60.540656 -172.073213 -11.606541 -144.150861 170.480713 -1.109024 -89.94669 42.163689 -5.490414 -2.74642 57.650776 32.974888 -42.928221 -0.223124 48.385276 -6.527272 31.654857 33.891582 -23.146343 164.927564 -53.600708 -148.769182 76.579697 -77.211706 87.46576 -11.700256 30.080047 -12.211805 16.980175 -41.642909 2.131996 156.339701 10.131973 144.607317 -75.957579 35.297317 -55.131799 83.586699 19.188903 -14.602053 -44.44704 28.080061 -20.04969 -23.532138 -63.757015 66.327374 -115.27585 59.867687 -33.363752 151.504915 39.088588 18.441014 -15.202125 42.410866 -27.96361 118.314075 36.560094 -40.283501
1.3919000000000001 69.8913 -0.6516 -3.000255 -46.407962 3.136775 -2.161586 5.109461 -83.373062 2.933515 0.701478 88.597792 -15.910891 23.113711 -69.281935 40.036028 4.277014 51.115735 -9.687853 3.385294 -38.44789 -6.35663 -0.177549 3.196588 -9.389232 34.728874 11.905373 68.581075 -7.417675 27.896267 -179.96834 -0.231062 106.853817 169.963797 -19.060157 141.691557 115.724514 -53.283911 54.841936 -116.636773 14.987625 61.516565 -22.366234 23.748264 11.752483 -163.75969 -11.908717 110.388909 16.114227 -39.481729 -2.561407 0.046521 0.291749 -0.004156 -146.657192 -1.460842 179.519989 -141.803026 -26.876867 -162.290144 23.950788 46.622376 -2.996472 -103.714016 -59.340713 -80.153464 1.92994 -62.114264 16.860782 84.527192 -24.28367 124.464673 -87.949833 46.860162 107.839216 169.206863 44.992516 -142.296564 3.091999 5.555679 5.323696 81.98003 -3.479499 -75.460415 49.944537 32.584013 -41.800229 133.110444 -12.486944 -119.91749 160.54004 -25.148627 -144.402751 159.903773 -23.009419 -147.108061 141.016413 39.720531 -153.161974 -8.181177 26.561318 2.474806 -0.200705 1.134042 -19.937195 35.2671 -23.006849 41.739744 -116.618574 62.886478 -34.305039 124.139702 29.627741 22.32113 -20.935619 53.203467 -77.918246 161.638906 -10.671932 -83.784584 -129.441734 64.287716 -37.505552 172.604145 45.189865 5.157763 -8.198916 56.025048 -129.166655 151.499813 -1.961184 -158.433925
